<svg xmlns="http://www.w3.org/2000/svg" viewBox="0 0 84.43 60.31">
    <path d="m18.58 50.84-.14.63-.74-.16-.46 5.09 1.81-3.32.3 3.78L21 52l-.74-.15.13-.64 1.72.36-.11.63-.41-.09-2.14 6.19-.57-.12-.27-3.18-1.54 2.8-.56-.12.58-6.52-.41-.09.14-.64Zm3.7 4.32c.39-4.68 5.6-3.9 4.6.69-.4 4.69-5.6 3.9-4.6-.69Zm4 .6c.76-3.82-3-4.38-3.36-.51-.78 3.83 2.94 4.38 3.34.52ZM32.8 60l-1.06-.09-1.45-3.34-.93-.09-.25 2.52.92.1-.06.65-2.31-.23.06-.65.79.08.54-5.59-.78-.19.06-.62a6.18 6.18 0 0 0 2.38.23c2.08-.08 2.21 3.42.23 3.74l1.23 2.78.7.07Zm-3.38-4.15c3 .84 3-3.12.23-2.44Zm5.34-2.02-.76-.24V53c2.38.25 4.69-.18 4.53 3.76-.21 4.14-2.39 3.12-4.83 3.33l-.06-.66h.8Zm.34 5.63c3.94 1.22 3.66-6.69.26-5.6Zm6.35.19h1.45v.66H40v-.66h.8V54l-.8-.11v-.57a8 8 0 0 0 2.67 0c3 .11 1.74 5-1.23 4Zm0-3c3.16.72 3.06-3.79 0-2.68ZM51 60h-1.07L48 57h-1l.12 2.53H48v.66l-2.31.11v-.66h.79l-.2-5.64-.8-.08v-.62a5.79 5.79 0 0 0 2.38-.11c2.06-.37 2.68 3.07.77 3.68l1.62 2.58h.69Zm-4-3.6c3.12.41 2.54-3.5-.11-2.45Zm4.79 3.6-.06-.65 1-.09-.55-5.67-1 .09-.06-.68 4.59-.43.19 2-.6.06c.16-2-1.36-1.14-2.55-1.14L53 55.7l1.32-.14-.09-1h.6l.26 2.7-.6.07-.11-1.09-1.38.1.27 2.82c1.3-.28 3 .41 2.46-1.86l.59-.06.22 2.26Zm8.62-.89A2.3 2.3 0 0 1 59 58.9v.44h-.59a7.71 7.71 0 0 0-.34-2.25l.56-.19c-.08 1.87 2.82 2.32 2.75.15-.31-2-3.24-.45-3.62-3a1.94 1.94 0 0 1 1.67-2.18 1.86 1.86 0 0 1 1.09.18v-.46h.59a8.11 8.11 0 0 0 .33 2.18l-.54.23a1.25 1.25 0 0 0-2.47-.37 1.06 1.06 0 0 0 0 .31c.28 1.86 3.22.38 3.61 3a1.87 1.87 0 0 1-1.54 2.16ZM66.43 58a2.33 2.33 0 0 1-1.43-.1l.06.43h-.59a7.78 7.78 0 0 0-.47-2.2l.54-.23c0 1.87 3 2.16 2.76 0-.44-2-3.26-.27-3.79-2.77A1.93 1.93 0 0 1 66.14 51v-.45h.59a7.65 7.65 0 0 0 .46 2.15l-.56.23a1.25 1.25 0 1 0-2.49-.23 1.09 1.09 0 0 0 0 .31c.4 1.84 3.24.19 3.79 2.75A1.87 1.87 0 0 1 66.5 58Z" style="fill:#ffffff"/>
    <path d="M70.43 53.68a54.83 54.83 0 0 0 13.68-5.5M.32 47.74a55.57 55.57 0 0 0 13.62 5.64" style="stroke:#ffffff;fill:none;stroke-linecap:round;stroke-linejoin:round;stroke-width:0.64px"/>
    <path d="m23.17 13.84 1.27 9.27-.37.05c-.08-.75-.72-4.77-.67-5.43a2.78 2.78 0 0 1-5.47-.3c-.58-3.25 3.78-4.63 5.16-2a9 9 0 0 1-.28-1.57Zm0 2.54c-.46-3.11-5.47-2.37-4.84.94.4 3.62 5.78 2.36 4.82-.95Zm7.58 1.34c-3.36 4-3.69-2-3.7-4.21h.37c-.33 6.13 2.94 7.69 4.66-.56l.35.06a36.52 36.52 0 0 0 .24 5.54h-.37a39.66 39.66 0 0 1-.23-4.5 11.7 11.7 0 0 1-1.32 3.67Zm10.51-4.98.11 5.49H41a8.45 8.45 0 0 1 0-1.59 2.78 2.78 0 0 1-5.4-.93c-.2-3.3 4.29-4.17 5.35-1.38a10.45 10.45 0 0 1-.1-1.59Zm-.32 2.53c-.1-3.14-5.16-3-4.91.37-.03 3.64 5.48 3.01 4.91-.37Zm4.2 3.02L45.54.1h.37l-.4 18.19Zm4.17.14.27-5.49.42.06-.27 5.49Zm.53-7a.33.33 0 1 1 .32-.32.32.32 0 0 1-.32.32Zm4.57 7.33.41-5.06-1.82-.17v-.31l1.84.14.23-2.84h.37l-.24 2.85 1.84.15v.33l-1.84-.15-.42 5.06Zm4.79-5.09.43.06L61.1 19l2.74-4.75.42.06c-1.59 2.59-3.72 6.63-5.9 8.89l-.27-.27a23.84 23.84 0 0 0 2.78-3.56ZM30.06 3.39a1.75 1.75 0 0 1 .72.07v.13c-2.78-.86-2.2 3.4-2 5.15l.75-.06v.13l-.75.07c.11 1.11.38 3.35-.62 3.81l-.08-.1c1-.61.61-2.6.55-3.7l-.74.1v-.18l.75-.05c-.12-1.59-.85-5.37 1.42-5.37ZM30.75 8a.13.13 0 0 1-.13-.13.13.13 0 0 1 .13-.13.13.13 0 0 1 .13.13.13.13 0 0 1-.13.13Zm.1 2.86-.14-2.23h.15L31 10.8Zm2.39-2.02c1.3-1.58 1.54.89 1.46 1.77h-.15c.25-2.4-1.16-3.18-1.91.15h-.14a17.19 17.19 0 0 0 0-2.27h.15a12.82 12.82 0 0 1 0 1.86 4.71 4.71 0 0 1 .59-1.51Zm2.68.67C35.8 7.84 38.24 8 38.07 9.4h-2a1 1 0 0 0 .93 1.08 1 1 0 0 0 .93-.46l.09.08a1.15 1.15 0 0 1-2.08-.59Zm.16-.19h1.81a.91.91 0 1 0-1.81 0Zm3.76.2c-1.36-.31-.16-1.95.66-1l-.1.09c-.7-.79-1.65.63-.48.85 1.38.38.07 1.75-.78 1l.09-.11c.77.65 1.77-.51.61-.83Zm2.4 1V8.46h-.75v-.15h.75V7.15h.16v1.17h.75v.14h-.75v2.06Z" style="stroke-miterlimit:10;stroke-width:0.21px;stroke:#ffffff;fill:#ffffff"/>
</svg>