<svg fill="#dab33e"
    xmlns="http://www.w3.org/2000/svg" viewBox="2 3 25 24">
    <path d="M7.414 3 9.19 9.412v3.076h1.538V9.412L12.525 3h-1.548l-.645 2.918a33.19 33.19 0 0 0-.35 1.818h-.046a27.26 27.26 0 0 0-.35-1.83L8.965 3h-1.55zm6.904 2.42c-.52 0-.941.102-1.261.31-.321.207-.556.539-.707.99-.15.454-.227 1.052-.227 1.798v1.005c0 .738.067 1.33.2 1.776.131.445.352.773.665.984.313.211.745.318 1.295.319.535 0 .962-.105 1.274-.313.312-.208.538-.533.677-.982.14-.45.21-1.043.21-1.782V8.518c0-.746-.072-1.342-.215-1.791-.143-.448-.368-.78-.678-.99-.31-.212-.72-.317-1.233-.317zm2.934.137v5.177c0 .641.11 1.113.328 1.414.22.301.558.452 1.018.452.663 0 1.16-.32 1.492-.961h.033l.137.847h1.22v-6.93h-1.558v5.505a.765.765 0 0 1-.277.318.688.688 0 0 1-.391.125.353.353 0 0 1-.34-.2c-.068-.131-.102-.35-.102-.66V5.558h-1.56zm-2.969.937c.218 0 .373.116.46.346.086.229.128.592.128 1.09v2.16c0 .513-.043.881-.129 1.107-.086.226-.24.34-.457.34-.218 0-.37-.114-.453-.34-.084-.226-.125-.595-.125-1.107V7.93c0-.497.045-.86.13-1.09.087-.23.235-.346.446-.346zM6.5 13.9A2.5 2.5 0 0 0 4 16.4v8a2.5 2.5 0 0 0 2.5 2.5h17a2.5 2.5 0 0 0 2.5-2.5v-8a2.5 2.5 0 0 0-2.5-2.5h-17zm8.559 2.3h1.27v3.083h.009c.114-.223.276-.402.486-.539.21-.137.438-.205.68-.205.312 0 .555.083.732.248.177.165.308.434.387.803.079.37.12.882.12 1.537v.924c0 .872-.105 1.513-.315 1.924-.21.41-.54.617-.985.617-.248 0-.473-.058-.677-.172a1.11 1.11 0 0 1-.457-.469h-.03l-.133.553H15.06v-8.305zm-7.875.296h3.904v1.06H9.779v6.948H8.49v-6.947H7.184v-1.06zm13.933 2.047c.451 0 .8.081 1.041.246.241.166.413.424.512.773.098.35.146.835.146 1.452v1.004h-2.203v.296c0 .376.01.657.033.844.023.187.07.325.14.41.07.086.177.13.323.13.197 0 .333-.077.407-.23.073-.151.113-.407.119-.763l1.135.066c.006.05.01.122.01.211 0 .541-.148.945-.444 1.211-.296.268-.715.403-1.256.403-.649 0-1.103-.205-1.365-.612-.262-.407-.39-1.037-.39-1.89v-1.022c0-.878.135-1.519.405-1.924s.732-.605 1.387-.605zm-8.168.107h1.319v5.852h-.004v.002h-1.032l-.113-.717h-.03c-.28.542-.699.813-1.259.813-.389 0-.674-.126-.86-.381-.184-.254-.277-.654-.277-1.194v-4.373h1.32v4.297c0 .26.03.449.087.559.058.112.152.166.287.166a.576.576 0 0 0 .328-.106.655.655 0 0 0 .234-.267v-4.65zm8.14.782c-.14 0-.245.04-.312.123-.067.083-.111.218-.132.406a7.745 7.745 0 0 0-.034.853v.42h.963v-.42c0-.376-.012-.66-.037-.853-.025-.195-.07-.33-.137-.41-.067-.08-.17-.12-.31-.12zm-4.179.043a.506.506 0 0 0-.353.152.833.833 0 0 0-.229.39v3.323a.581.581 0 0 0 .225.228c.092.05.192.078.3.078.14 0 .252-.05.334-.152.083-.102.142-.273.176-.515a7.38 7.38 0 0 0 .053-1.002v-.754c0-.458-.014-.812-.043-1.06-.028-.249-.08-.426-.152-.53a.358.358 0 0 0-.31-.158z"/>
</svg>
